<svg width="300" height="300" viewBox="0 0 300 300" fill="none" xmlns="http://www.w3.org/2000/svg">
<rect width="300" height="300" fill="white"/>
<path d="M73.4 71.6C70.6 76.5333 71.1334 110 74.0667 119.867C76.6 127.733 81.8 134.667 84.7334 133.6C85.5334 133.333 100.067 118.667 116.733 100.933L147.267 68.6667H111.133C75.1333 68.6667 75.1334 68.6667 73.4 71.6Z" fill="black"/>
<path d="M126.067 121.067C101.667 149.733 80.3333 175.467 78.6 178C72.2 187.6 71 192.933 71 212V230H99H126.867L171.133 181.2C195.4 154.267 217.4 128.933 220.067 124.933C227 113.867 228.333 108.133 228.333 87.0667V68.6667H199.4H170.333L126.067 121.067Z" fill="black"/>
<path d="M185.933 195.067C168.867 213.467 155 228.8 155 229.333C155 229.733 170.867 230 190.333 230H225.667L226.6 226.267C228.333 220.267 227.8 182 225.933 175.6C225 172.533 222.6 168 220.6 165.867L216.867 161.733L185.933 195.067Z" fill="black"/>
</svg>
